<svg xmlns="http://www.w3.org/2000/svg" viewBox="0 0 200 200">
  <!-- Background Circle -->
  <circle cx="100" cy="100" r="95" fill="#462111" />
  
  <!-- Steam (Left) -->
  <path d="M90,70 C85,60 95,50 95,40 C95,30 85,25 90,15 C95,25 85,35 85,45 C85,55 95,65 90,70 Z" fill="#ffffff"/>
  
  <!-- Steam (Right) -->
  <path d="M110,65 C106,57 114,49 114,41 C114,33 106,29 110,21 C114,29 106,37 106,45 C106,53 114,61 110,65 Z" fill="#ffffff"/>
  
  <!-- Cup Handle -->
  <path d="M55,95 C30,95 30,125 55,125" fill="none" stroke="#ffffff" stroke-width="12" stroke-linecap="round" stroke-linejoin="round"/>
  
  <!-- Cup Body -->
  <path d="M45,85 Q100,95 155,85 C155,135 135,160 100,160 C65,160 45,135 45,85 Z" fill="#ffffff" />
  
  <!-- Text inside Cup -->
  <text x="100" y="115" font-family="'Arial', sans-serif" font-weight="900" font-size="24" fill="#462111" text-anchor="middle" letter-spacing="1">CAFE</text>
  <text x="100" y="145" font-family="'Arial', sans-serif" font-weight="900" font-size="34" fill="#462111" text-anchor="middle" letter-spacing="2">!N</text>
</svg>
